<svg xmlns="http://www.w3.org/2000/svg" viewBox="0 0 1200 255" role="img" aria-label="起初 A 瓶1000毫升、糖100公克；B 瓶500毫升、無糖。先混勻A倒500毫升至B，再混勻B倒500毫升回A。"><g fill="none" stroke="#243c3d" stroke-width="4" stroke-linecap="round" stroke-linejoin="round"><path d="M100 20V145Q100 155 110 155H200Q210 155 210 145V20"/><path d="M102 45.0H208" stroke-dasharray="7 5"/><text x="155" y="90" text-anchor="middle" fill="#243c3d" stroke="none" font-size="40" font-family="Noto Sans TC,PingFang TC,sans-serif">A</text><text x="155" y="198" text-anchor="middle" fill="#243c3d" stroke="none" font-size="30" font-family="Noto Sans TC,PingFang TC,sans-serif">1000 mL</text><text x="155" y="240" text-anchor="middle" fill="#243c3d" stroke="none" font-size="30" font-family="Noto Sans TC,PingFang TC,sans-serif">糖 100 g</text><path d="M990 20V145Q990 155 1000 155H1090Q1100 155 1100 145V20"/><path d="M992 95.0H1098" stroke-dasharray="7 5"/><text x="1045" y="90" text-anchor="middle" fill="#243c3d" stroke="none" font-size="40" font-family="Noto Sans TC,PingFang TC,sans-serif">B</text><text x="1045" y="198" text-anchor="middle" fill="#243c3d" stroke="none" font-size="30" font-family="Noto Sans TC,PingFang TC,sans-serif">500 mL</text><text x="1045" y="240" text-anchor="middle" fill="#243c3d" stroke="none" font-size="30" font-family="Noto Sans TC,PingFang TC,sans-serif">糖 0 g</text><text x="600" y="48" text-anchor="middle" fill="#243c3d" stroke="none" font-size="32" font-family="Noto Sans TC,PingFang TC,sans-serif">① A 混合均勻 → 倒 500 mL</text><path d="M330 77H870M852 65L870 77L852 89"/><text x="600" y="155" text-anchor="middle" fill="#243c3d" stroke="none" font-size="32" font-family="Noto Sans TC,PingFang TC,sans-serif">② B 混合均勻 → 倒回 500 mL</text><path d="M870 184H330M348 172L330 184L348 196"/></g></svg>