<?xml version="1.0" encoding="utf-8" standalone="no"?>
<!DOCTYPE svg PUBLIC "-//W3C//DTD SVG 1.1//EN"
  "http://www.w3.org/Graphics/SVG/1.1/DTD/svg11.dtd">
<svg xmlns:xlink="http://www.w3.org/1999/xlink" width="792pt" height="360pt" viewBox="0 0 792 360" xmlns="http://www.w3.org/2000/svg" version="1.1">
 <metadata>
  <rdf:RDF xmlns:dc="http://purl.org/dc/elements/1.1/" xmlns:cc="http://creativecommons.org/ns#" xmlns:rdf="http://www.w3.org/1999/02/22-rdf-syntax-ns#">
   <cc:Work>
    <dc:type rdf:resource="http://purl.org/dc/dcmitype/StillImage"/>
    <dc:date>2026-09-29T01:18:17.978972</dc:date>
    <dc:format>image/svg+xml</dc:format>
    <dc:creator>
     <cc:Agent>
      <dc:title>Matplotlib v3.11.2, https://matplotlib.org/</dc:title>
     </cc:Agent>
    </dc:creator>
   </cc:Work>
  </rdf:RDF>
 </metadata>
 <defs>
  <style type="text/css">*{stroke-linejoin: round; stroke-linecap: butt}</style>
 </defs>
 <g id="figure_1">
  <g id="patch_1">
   <path d="M 0 360 
L 792 360 
L 792 0 
L 0 0 
z
" style="fill: #f8f5eb"/>
  </g>
  <g id="axes_1">
   <g id="patch_2">
    <path d="M 137.898828 276.501172 
L 747 276.501172 
L 747 72.6 
L 137.898828 72.6 
z
" style="fill: #f8f5eb"/>
   </g>
   <g id="patch_3">
    <path d="M 165.585245 276.501172 
L 350.161358 276.501172 
L 350.161358 154.160469 
L 165.585245 154.160469 
z
" clip-path="url(#p41eae247eb)" style="fill: #176b64"/>
   </g>
   <g id="patch_4">
    <path d="M 534.73747 276.501172 
L 719.313583 276.501172 
L 719.313583 113.380234 
L 534.73747 113.380234 
z
" clip-path="url(#p41eae247eb)" style="fill: #b05935"/>
   </g>
   <g id="matplotlib.axis_1">
    <g id="xtick_1">
     <g id="line2d_1">
      <defs>
       <path id="ma539753ab8" d="M 0 0 
L 0 3.5 
" style="stroke: #163e40; stroke-width: 0.8"/>
      </defs>
      <g>
       <use xlink:href="#ma539753ab8" x="257.873301" y="276.501172" style="fill: #163e40; stroke: #163e40; stroke-width: 0.8"/>
      </g>
     </g>
     <g id="text_1">
      <!-- 甲班 -->
      <g style="fill: #163e40" transform="translate(227.873301 307.833984) scale(0.3 -0.3)">
       <defs>
        <path id="ArialUnicodeMS-47c1" d="M 5503 1381 
L 5019 1381 
L 5019 1778 
L 3444 1778 
L 3444 -441 
L 2956 -441 
L 2956 1778 
L 1381 1778 
L 1381 1381 
L 897 1381 
L 897 5025 
L 5503 5025 
L 5503 1381 
z
M 5019 3659 
L 5019 4556 
L 3444 4556 
L 3444 3659 
L 5019 3659 
z
M 2956 3659 
L 2956 4556 
L 1381 4556 
L 1381 3659 
L 2956 3659 
z
M 5019 2247 
L 5019 3194 
L 3444 3194 
L 3444 2247 
L 5019 2247 
z
M 2956 2247 
L 2956 3194 
L 1381 3194 
L 1381 2247 
L 2956 2247 
z
" transform="scale(0.015625)"/>
        <path id="ArialUnicodeMS-467c" d="M 3750 2150 
Q 3750 1328 3442 728 
Q 3134 128 2484 -391 
L 2125 -25 
Q 2731 403 2997 892 
Q 3263 1381 3263 2156 
L 3263 5191 
L 3750 5191 
L 3750 2150 
z
M 6088 -44 
L 3488 -44 
L 3488 422 
L 4500 422 
L 4500 2241 
L 3891 2241 
L 3891 2706 
L 4500 2706 
L 4500 4331 
L 3847 4331 
L 3847 4800 
L 5913 4800 
L 5913 4331 
L 4984 4331 
L 4984 2706 
L 5672 2706 
L 5672 2241 
L 4984 2241 
L 4984 422 
L 6088 422 
L 6088 -44 
z
M 2688 744 
L 622 -56 
L 319 353 
Q 884 525 1306 691 
L 1306 2356 
L 588 2356 
L 588 2822 
L 1306 2822 
L 1306 4313 
L 434 4313 
L 434 4781 
L 2566 4781 
L 2566 4313 
L 1791 4313 
L 1791 2822 
L 2381 2822 
L 2381 2356 
L 1791 2356 
L 1791 897 
L 2688 1228 
L 2688 744 
z
M 2938 1766 
L 2463 1766 
L 2463 3909 
L 2938 3909 
L 2938 1766 
z
" transform="scale(0.015625)"/>
       </defs>
       <use xlink:href="#ArialUnicodeMS-47c1"/>
       <use xlink:href="#ArialUnicodeMS-467c" transform="translate(100 0)"/>
      </g>
     </g>
    </g>
    <g id="xtick_2">
     <g id="line2d_2">
      <g>
       <use xlink:href="#ma539753ab8" x="627.025527" y="276.501172" style="fill: #163e40; stroke: #163e40; stroke-width: 0.8"/>
      </g>
     </g>
     <g id="text_2">
      <!-- 乙班 -->
      <g style="fill: #163e40" transform="translate(597.025527 307.833984) scale(0.3 -0.3)">
       <defs>
        <path id="ArialUnicodeMS-20e8" d="M 5816 1491 
Q 5659 741 5568 486 
Q 5478 231 5215 70 
Q 4953 -91 4547 -91 
L 2134 -91 
Q 1581 -91 1297 186 
Q 1013 463 1013 916 
Q 1013 1397 1706 2100 
Q 2400 2803 3266 3431 
L 4425 4269 
L 1169 4269 
L 1169 4738 
L 5347 4738 
L 5347 4294 
Q 1547 1634 1547 897 
Q 1547 706 1697 542 
Q 1847 378 1975 378 
L 4553 378 
Q 4916 378 5086 686 
Q 5256 994 5303 1644 
L 5816 1491 
z
" transform="scale(0.015625)"/>
       </defs>
       <use xlink:href="#ArialUnicodeMS-20e8"/>
       <use xlink:href="#ArialUnicodeMS-467c" transform="translate(100 0)"/>
      </g>
     </g>
    </g>
   </g>
   <g id="matplotlib.axis_2">
    <g id="ytick_1">
     <g id="line2d_3">
      <defs>
       <path id="m6442a73cfc" d="M 0 0 
L -3.5 0 
" style="stroke: #163e40; stroke-width: 0.8"/>
      </defs>
      <g>
       <use xlink:href="#m6442a73cfc" x="137.898828" y="276.501172" style="fill: #163e40; stroke: #163e40; stroke-width: 0.8"/>
      </g>
     </g>
     <g id="text_3">
      <!-- 0 -->
      <g style="fill: #163e40" transform="translate(114.216016 287.421582) scale(0.3 -0.3)">
       <defs>
        <path id="ArialUnicodeMS-13" d="M 1778 4603 
Q 3272 4603 3272 2259 
Q 3272 1075 2886 498 
Q 2500 -78 1778 -78 
Q 288 -78 288 2259 
Q 288 3444 673 4023 
Q 1059 4603 1778 4603 
z
M 1778 384 
Q 2231 384 2462 823 
Q 2694 1263 2694 2259 
Q 2694 2953 2592 3351 
Q 2491 3750 2286 3945 
Q 2081 4141 1772 4141 
Q 1319 4141 1091 3694 
Q 863 3247 863 2259 
Q 863 1575 966 1175 
Q 1069 775 1272 579 
Q 1475 384 1778 384 
z
" transform="scale(0.015625)"/>
       </defs>
       <use xlink:href="#ArialUnicodeMS-13"/>
      </g>
     </g>
    </g>
    <g id="ytick_2">
     <g id="line2d_4">
      <g>
       <use xlink:href="#m6442a73cfc" x="137.898828" y="174.550586" style="fill: #163e40; stroke: #163e40; stroke-width: 0.8"/>
      </g>
     </g>
     <g id="text_4">
      <!-- 50 -->
      <g style="fill: #163e40" transform="translate(97.533203 185.470996) scale(0.3 -0.3)">
       <defs>
        <path id="ArialUnicodeMS-18" d="M 1013 2753 
Q 1431 3041 1881 3041 
Q 2453 3041 2878 2636 
Q 3303 2231 3303 1556 
Q 3303 875 2872 398 
Q 2441 -78 1741 -78 
Q 1169 -78 750 245 
Q 331 569 269 1203 
L 856 1247 
Q 928 813 1162 598 
Q 1397 384 1741 384 
Q 2169 384 2434 707 
Q 2700 1031 2700 1503 
Q 2700 1984 2428 2262 
Q 2156 2541 1728 2541 
Q 1188 2541 897 2100 
L 366 2163 
L 813 4519 
L 3084 4519 
L 3084 3975 
L 1259 3975 
L 1013 2753 
z
" transform="scale(0.015625)"/>
       </defs>
       <use xlink:href="#ArialUnicodeMS-18"/>
       <use xlink:href="#ArialUnicodeMS-13" transform="translate(55.609375 0)"/>
      </g>
     </g>
    </g>
    <g id="ytick_3">
     <g id="line2d_5">
      <g>
       <use xlink:href="#m6442a73cfc" x="137.898828" y="72.6" style="fill: #163e40; stroke: #163e40; stroke-width: 0.8"/>
      </g>
     </g>
     <g id="text_5">
      <!-- 100 -->
      <g style="fill: #163e40" transform="translate(80.850391 83.52041) scale(0.3 -0.3)">
       <defs>
        <path id="ArialUnicodeMS-14" d="M 2400 0 
L 1838 0 
L 1838 3584 
Q 1416 3184 709 2906 
L 709 3450 
Q 1681 3916 2034 4603 
L 2400 4603 
L 2400 0 
z
" transform="scale(0.015625)"/>
       </defs>
       <use xlink:href="#ArialUnicodeMS-14"/>
       <use xlink:href="#ArialUnicodeMS-13" transform="translate(55.609375 0)"/>
       <use xlink:href="#ArialUnicodeMS-13" transform="translate(111.21875 0)"/>
      </g>
     </g>
    </g>
    <g id="text_6">
     <!-- 支持比例（%） -->
     <g style="fill: #163e40" transform="translate(70.550391 277.888867) rotate(-90) scale(0.3 -0.3)">
      <defs>
       <path id="ArialUnicodeMS-37be" d="M 6047 50 
L 5831 -416 
Q 5288 -334 4478 2 
Q 3669 338 3303 647 
Q 1863 -181 750 -416 
L 500 31 
Q 1578 225 2869 947 
Q 2184 1484 1631 2438 
L 1203 2438 
L 1203 2906 
L 3003 2906 
L 3003 3794 
L 659 3794 
L 659 4263 
L 3003 4263 
L 3003 5313 
L 3513 5313 
L 3525 4263 
L 5869 4263 
L 5869 3794 
L 3513 3794 
L 3525 2906 
L 5131 2906 
L 5131 2478 
Q 4975 2147 4534 1665 
Q 4094 1184 3706 928 
Q 4681 291 6047 50 
z
M 4538 2438 
L 2175 2438 
Q 2509 1847 3284 1228 
Q 3969 1647 4538 2438 
z
" transform="scale(0.015625)"/>
       <path id="ArialUnicodeMS-3590" d="M 6003 2725 
L 2478 2725 
L 2478 3194 
L 3956 3194 
L 3956 3975 
L 2713 3975 
L 2713 4441 
L 3956 4441 
L 3956 5338 
L 4441 5338 
L 4441 4441 
L 5650 4441 
L 5650 3975 
L 4441 3975 
L 4441 3194 
L 6003 3194 
L 6003 2725 
z
M 2547 3597 
L 1772 3597 
L 1772 2413 
L 2509 2713 
L 2509 2194 
L 1772 1919 
L 1772 78 
Q 1772 -409 1247 -409 
L 653 -409 
L 500 63 
L 959 38 
Q 1288 25 1288 225 
L 1288 1766 
Q 909 1594 569 1503 
L 250 1906 
Q 966 2119 1288 2247 
L 1288 3597 
L 409 3597 
L 409 4063 
L 1288 4063 
L 1288 5338 
L 1772 5338 
L 1772 4063 
L 2547 4063 
L 2547 3597 
z
M 6041 1613 
L 5094 1613 
L 5094 63 
Q 5069 -138 4923 -273 
Q 4778 -409 4581 -409 
L 3938 -409 
L 3750 91 
Q 4009 56 4481 56 
Q 4503 56 4556 87 
Q 4609 119 4609 166 
L 4609 1613 
L 2363 1613 
L 2363 2081 
L 4609 2081 
L 4609 2566 
L 5094 2566 
L 5094 2081 
L 6041 2081 
L 6041 1613 
z
M 4050 666 
L 3725 306 
Q 3069 884 2572 1081 
L 2894 1434 
Q 3453 1206 4050 666 
z
" transform="scale(0.015625)"/>
       <path id="ArialUnicodeMS-3e63" d="M 6119 1100 
Q 5975 -197 5300 -197 
L 4103 -197 
Q 3828 -197 3658 -42 
Q 3488 113 3488 378 
L 3488 5191 
L 3994 5191 
L 3994 2906 
Q 4775 3172 5600 3916 
L 5984 3584 
Q 5013 2703 3994 2388 
L 3994 506 
Q 4022 269 4225 269 
L 5153 269 
Q 5375 269 5464 464 
Q 5553 659 5625 1325 
L 6119 1100 
z
M 3238 306 
L 653 -231 
L 378 250 
L 1131 391 
L 1131 5166 
L 1638 5166 
L 1638 3450 
L 3238 3450 
L 3238 2981 
L 1638 2981 
L 1638 500 
L 3238 819 
L 3238 306 
z
" transform="scale(0.015625)"/>
       <path id="ArialUnicodeMS-221a" d="M 2081 5247 
Q 2025 4947 1838 4338 
L 1650 3738 
L 1650 -403 
L 1166 -403 
L 1166 2681 
Q 1041 2422 691 2034 
L 263 2278 
Q 1306 3531 1638 5409 
L 2081 5247 
z
M 5831 134 
Q 5831 -406 5153 -397 
L 4722 -391 
L 4513 122 
L 4978 97 
Q 5125 84 5231 184 
Q 5338 284 5338 441 
L 5325 5325 
L 5831 5325 
L 5831 134 
z
M 4231 4506 
L 3116 4506 
Q 3072 3997 3034 3688 
L 4141 3688 
Q 4134 2003 3682 1200 
Q 3231 397 2253 -397 
L 1906 -25 
Q 2938 797 3278 1509 
Q 3006 1888 2597 2125 
L 2894 2497 
Q 3156 2350 3456 1984 
Q 3591 2453 3647 3219 
L 2944 3219 
Q 2650 2138 2150 1569 
L 1691 1831 
Q 2606 2872 2606 4506 
L 2138 4506 
L 2138 4972 
L 4231 4972 
L 4231 4506 
z
M 4941 872 
L 4453 872 
L 4453 4441 
L 4941 4441 
L 4941 872 
z
" transform="scale(0.015625)"/>
       <path id="ArialUnicodeMS-19e4" d="M 3963 -1344 
L 3560 -1344 
Q 3041 -681 2744 103 
Q 2447 888 2447 1656 
Q 2447 2528 2763 3275 
Q 3079 4022 3560 4659 
L 3963 4659 
Q 3407 3747 3218 3059 
Q 3029 2372 3029 1663 
Q 3029 153 3963 -1344 
z
" transform="scale(0.015625)"/>
       <path id="ArialUnicodeMS-8" d="M 4325 4659 
L 1838 -159 
L 1369 -159 
L 3872 4659 
L 4325 4659 
z
M 1428 4653 
Q 1856 4653 2137 4343 
Q 2419 4034 2419 3438 
Q 2419 2850 2131 2539 
Q 1844 2228 1434 2228 
Q 1009 2228 739 2540 
Q 469 2853 469 3475 
Q 469 3984 722 4318 
Q 975 4653 1428 4653 
z
M 1441 2619 
Q 1931 2619 1931 3463 
Q 1931 4269 1441 4269 
Q 953 4269 953 3419 
Q 953 2619 1441 2619 
z
M 4250 2253 
Q 4681 2253 4961 1943 
Q 5241 1634 5241 1038 
Q 5241 600 5087 328 
Q 4934 56 4709 -58 
Q 4484 -172 4256 -172 
Q 3831 -172 3561 140 
Q 3291 453 3291 1075 
Q 3291 1584 3544 1918 
Q 3797 2253 4250 2253 
z
M 4263 219 
Q 4756 219 4756 1063 
Q 4756 1869 4263 1869 
Q 3775 1869 3775 1019 
Q 3775 219 4263 219 
z
" transform="scale(0.015625)"/>
       <path id="ArialUnicodeMS-19e5" d="M 2847 4659 
Q 3366 3997 3663 3212 
Q 3960 2428 3960 1656 
Q 3960 788 3644 41 
Q 3329 -706 2847 -1344 
L 2444 -1344 
Q 3001 -431 3190 255 
Q 3379 941 3379 1650 
Q 3379 3163 2444 4659 
L 2847 4659 
z
" transform="scale(0.015625)"/>
      </defs>
      <use xlink:href="#ArialUnicodeMS-37be"/>
      <use xlink:href="#ArialUnicodeMS-3590" transform="translate(100 0)"/>
      <use xlink:href="#ArialUnicodeMS-3e63" transform="translate(200 0)"/>
      <use xlink:href="#ArialUnicodeMS-221a" transform="translate(300 0)"/>
      <use xlink:href="#ArialUnicodeMS-19e4" transform="translate(400 0)"/>
      <use xlink:href="#ArialUnicodeMS-8" transform="translate(500 0)"/>
      <use xlink:href="#ArialUnicodeMS-19e5" transform="translate(588.921875 0)"/>
     </g>
    </g>
   </g>
   <g id="patch_5">
    <path d="M 137.898828 276.501172 
L 137.898828 72.6 
" style="fill: none; stroke: #000000; stroke-width: 0.8; stroke-linejoin: miter; stroke-linecap: square"/>
   </g>
   <g id="patch_6">
    <path d="M 137.898828 276.501172 
L 747 276.501172 
" style="fill: none; stroke: #000000; stroke-width: 0.8; stroke-linejoin: miter; stroke-linecap: square"/>
   </g>
   <g id="text_7">
    <!-- 60 -->
    <g style="fill: #163e40" transform="translate(241.190489 152.121457) scale(0.3 -0.3)">
     <defs>
      <path id="ArialUnicodeMS-19" d="M 838 2363 
Q 1225 2969 1941 2969 
Q 2503 2969 2897 2553 
Q 3291 2138 3291 1491 
Q 3291 838 2898 380 
Q 2506 -78 1856 -78 
Q 1197 -78 733 409 
Q 269 897 269 2144 
Q 269 3369 689 3986 
Q 1109 4603 1906 4603 
Q 2422 4603 2778 4315 
Q 3134 4028 3213 3463 
L 2650 3413 
Q 2497 4141 1875 4141 
Q 1444 4141 1134 3712 
Q 825 3284 825 2363 
L 838 2363 
z
M 1844 384 
Q 2231 384 2472 696 
Q 2713 1009 2713 1453 
Q 2713 1897 2472 2187 
Q 2231 2478 1825 2478 
Q 1453 2478 1184 2204 
Q 916 1931 916 1484 
Q 916 1028 1180 706 
Q 1444 384 1844 384 
z
" transform="scale(0.015625)"/>
     </defs>
     <use xlink:href="#ArialUnicodeMS-19"/>
     <use xlink:href="#ArialUnicodeMS-13" transform="translate(55.609375 0)"/>
    </g>
   </g>
   <g id="text_8">
    <!-- 80 -->
    <g style="fill: #163e40" transform="translate(610.342714 111.341223) scale(0.3 -0.3)">
     <defs>
      <path id="ArialUnicodeMS-1b" d="M 2425 2478 
Q 3284 2203 3284 1306 
Q 3284 716 2862 319 
Q 2441 -78 1778 -78 
Q 1109 -78 689 322 
Q 269 722 269 1325 
Q 269 1759 505 2084 
Q 741 2409 1141 2478 
L 1141 2491 
Q 453 2703 453 3419 
Q 453 3925 815 4264 
Q 1178 4603 1766 4603 
Q 2363 4603 2730 4253 
Q 3097 3903 3097 3406 
Q 3097 2731 2425 2491 
L 2425 2478 
z
M 1778 2700 
Q 2094 2700 2308 2901 
Q 2522 3103 2522 3406 
Q 2522 3716 2305 3928 
Q 2088 4141 1772 4141 
Q 1450 4141 1240 3931 
Q 1031 3722 1031 3438 
Q 1031 3097 1247 2898 
Q 1463 2700 1778 2700 
z
M 1778 384 
Q 2175 384 2440 640 
Q 2706 897 2706 1306 
Q 2706 1716 2432 1978 
Q 2159 2241 1766 2241 
Q 1356 2241 1100 1970 
Q 844 1700 844 1319 
Q 844 922 1108 653 
Q 1372 384 1778 384 
z
" transform="scale(0.015625)"/>
     </defs>
     <use xlink:href="#ArialUnicodeMS-1b"/>
     <use xlink:href="#ArialUnicodeMS-13" transform="translate(55.609375 0)"/>
    </g>
   </g>
   <g id="text_9">
    <!-- 教學模擬｜甲班50人、乙班30人 -->
    <g style="fill: #163e40" transform="translate(257.532539 66.6) scale(0.26 -0.26)">
     <defs>
      <path id="ArialUnicodeMS-37e8" d="M 3519 4475 
Q 3147 3844 2828 3494 
L 3413 3494 
L 3413 3034 
L 2400 3034 
L 2053 2650 
L 3138 2650 
L 3138 2228 
Q 2403 1525 2369 1497 
L 2369 1350 
Q 2663 1419 3366 1650 
L 3366 1172 
L 2369 878 
L 2369 44 
Q 2369 -109 2234 -231 
Q 2100 -353 1875 -365 
Q 1650 -378 1394 -384 
L 1191 122 
Q 1572 75 1759 75 
Q 1881 75 1881 153 
L 1881 722 
L 897 434 
L 628 897 
Q 1238 1038 1881 1216 
L 1881 1625 
L 2484 2188 
L 1588 2188 
Q 1075 1694 519 1331 
L 191 1703 
Q 547 1931 884 2181 
L 703 2181 
L 703 2650 
L 1447 2650 
Q 1647 2841 1813 3034 
L 372 3034 
L 372 3494 
L 1544 3494 
L 1544 4122 
L 703 4122 
L 703 4581 
L 1544 4581 
L 1544 5319 
L 2003 5319 
L 2003 4581 
L 2681 4581 
L 2681 4122 
L 2003 4122 
L 2003 3494 
L 2247 3494 
Q 2759 4069 3066 4728 
L 3519 4475 
z
M 6081 38 
L 5722 -353 
Q 4969 241 4634 769 
Q 4234 197 3413 -353 
L 3078 38 
Q 3997 634 4347 1203 
Q 4013 1825 3878 2747 
Q 3713 2359 3531 2169 
L 3169 2450 
Q 3841 3434 4072 5306 
L 4550 5159 
L 4331 3988 
L 5959 3988 
L 5959 3525 
L 5453 3525 
Q 5231 1869 4897 1203 
Q 5294 588 6081 38 
z
M 4972 3525 
L 4256 3525 
Q 4313 2463 4603 1716 
Q 4872 2416 4972 3525 
z
" transform="scale(0.015625)"/>
      <path id="ArialUnicodeMS-2e07" d="M 5784 1722 
L 5325 1722 
L 5325 2222 
L 1081 2222 
L 1081 1684 
L 594 1684 
L 594 2688 
L 1031 2688 
L 806 4806 
Q 1534 4881 2113 5313 
L 2369 4953 
Q 1841 4563 1306 4469 
L 1331 4269 
L 2322 4269 
Q 2344 4269 2547 4381 
Q 2750 4494 2834 4556 
Q 2494 4675 2266 4709 
L 2463 5081 
L 3225 4850 
Q 3453 5069 3622 5319 
L 3950 5056 
Q 3825 4853 3622 4653 
Q 3850 4494 4050 4294 
L 3775 3922 
Q 3475 4244 3272 4347 
Q 2675 3956 2644 3950 
L 2344 4197 
L 2344 3828 
L 1369 3828 
L 1416 3500 
L 2344 3500 
L 2344 3059 
L 1459 3059 
L 1497 2688 
L 3744 2688 
Q 3609 2844 3231 3116 
Q 3019 2956 2509 2706 
L 2194 2975 
Q 2497 3103 2822 3353 
Q 2797 3378 2259 3541 
L 2541 3866 
Q 2747 3856 3200 3634 
L 3566 4000 
L 3878 3738 
Q 3844 3703 3741 3572 
Q 3638 3441 3578 3397 
Q 3950 3128 4103 2975 
L 3834 2688 
L 4891 2688 
L 4947 3091 
L 4078 3091 
L 4078 3531 
L 4984 3531 
L 5031 3859 
L 4078 3859 
L 4078 4300 
L 5069 4300 
L 5100 4563 
L 3956 4563 
L 3956 5006 
L 5606 5006 
L 5369 2688 
L 5784 2688 
L 5784 1722 
z
M 6009 647 
L 3531 647 
L 3531 116 
Q 3531 -194 3365 -312 
Q 3200 -431 2297 -416 
L 1931 63 
L 2834 63 
Q 3047 63 3047 294 
L 3047 647 
L 422 647 
L 422 1088 
L 3047 1088 
L 3047 1331 
L 3744 1563 
L 3731 1575 
L 1441 1575 
L 1441 2016 
L 4891 2016 
L 4891 1600 
Q 4388 1353 3553 1094 
L 3566 1088 
L 6009 1088 
L 6009 647 
z
" transform="scale(0.015625)"/>
      <path id="ArialUnicodeMS-3cb0" d="M 5906 4213 
L 5063 4213 
L 5063 3809 
L 4575 3809 
L 4575 4213 
L 3469 4213 
L 3469 3809 
L 2981 3809 
L 2981 4213 
L 2131 4213 
L 2131 4678 
L 2981 4678 
L 2981 5300 
L 3469 5300 
L 3469 4678 
L 4575 4678 
L 4575 5300 
L 5063 5300 
L 5063 4678 
L 5906 4678 
L 5906 4213 
z
M 2503 1947 
L 2088 1684 
Q 1891 2191 1716 2394 
L 1716 -441 
L 1222 -441 
L 1222 2088 
Q 1066 1534 588 941 
L 197 1281 
Q 1044 2356 1216 3572 
L 397 3572 
L 397 4038 
L 1209 4038 
L 1209 5281 
L 1716 5281 
L 1716 4038 
L 2406 4038 
L 2406 3572 
L 1716 3572 
L 1716 2900 
L 1856 2969 
Q 2316 2422 2503 1947 
z
M 6094 -25 
L 5838 -422 
Q 4453 -172 4025 838 
Q 3584 -53 2241 -428 
L 1972 -6 
Q 3103 253 3506 856 
L 2247 856 
L 2247 1325 
L 3706 1325 
L 3788 1684 
L 2553 1684 
L 2553 3675 
L 5491 3675 
L 5491 1684 
L 4250 1684 
Q 4222 1453 4178 1325 
L 5791 1325 
L 5791 856 
L 4519 856 
Q 4981 197 6094 -25 
z
M 4984 2925 
L 4984 3206 
L 3059 3206 
L 3059 2925 
L 4984 2925 
z
M 4984 2150 
L 4984 2456 
L 3059 2456 
L 3059 2150 
L 4984 2150 
z
" transform="scale(0.015625)"/>
      <path id="ArialUnicodeMS-377b" d="M 3878 3834 
Q 3697 3353 3244 3353 
L 2566 3353 
Q 2381 3353 2237 3501 
Q 2094 3650 2094 3841 
L 2094 5325 
L 2578 5325 
L 2578 4763 
Q 3191 4863 3481 5069 
L 3713 4659 
Q 3278 4431 2578 4319 
L 2578 3928 
Q 2578 3881 2626 3837 
Q 2675 3794 2719 3794 
L 3244 3794 
Q 3406 3794 3456 4109 
L 3878 3834 
z
M 6119 263 
Q 6091 191 6003 33 
Q 5916 -125 5888 -206 
Q 4353 -138 4116 531 
Q 3947 56 3488 -403 
L 3116 -134 
Q 3263 19 3397 191 
Q 3159 472 2797 775 
Q 2459 75 1806 -372 
L 1516 -78 
Q 1356 -359 1069 -359 
L 563 -359 
L 397 147 
Q 672 119 797 119 
Q 928 119 1004 164 
Q 1081 209 1081 250 
L 1081 2022 
L 506 1691 
L 269 2100 
Q 925 2441 1081 2553 
L 1081 3653 
L 447 3653 
L 447 4097 
L 1081 4097 
L 1081 5325 
L 1575 5325 
L 1575 4097 
L 2059 4097 
L 2059 3653 
L 1575 3653 
L 1575 2816 
Q 1694 2875 2034 3138 
L 2034 2606 
L 1575 2303 
L 1575 91 
Q 2359 622 2522 1466 
L 1691 1466 
L 1691 1906 
L 2591 1906 
L 2644 2503 
L 2491 2503 
Q 2325 2141 2150 1919 
Q 1875 2044 1759 2119 
Q 2144 2600 2316 3391 
L 2706 3244 
Q 2678 3056 2631 2969 
L 3681 2969 
L 3681 2503 
L 3097 2503 
L 3041 1906 
L 3725 1906 
L 3725 1466 
L 2994 1466 
Q 2956 1375 2931 1222 
Q 3413 944 3622 684 
Q 3834 934 3834 2541 
L 4294 2541 
Q 4300 1975 4272 1509 
L 4244 1072 
Q 4244 959 4550 641 
L 4550 2809 
L 3719 2809 
L 3719 3250 
L 5959 3250 
Q 5859 2622 5663 2119 
L 5209 2266 
L 5388 2809 
L 5038 2809 
L 5038 1906 
L 5894 1906 
L 5894 1447 
L 5038 1447 
L 5038 384 
Q 5406 272 6119 263 
z
M 5831 4628 
L 5038 3891 
L 5394 3591 
L 5056 3272 
Q 4478 3809 3891 4044 
L 4219 4359 
Q 4459 4284 4647 4159 
L 5216 4603 
L 5216 4616 
L 3763 4616 
L 3763 5081 
L 5831 5081 
L 5831 4628 
z
" transform="scale(0.015625)"/>
      <path id="ArialUnicodeMS-1a38" d="M 3444 -1275 
L 2957 -1275 
L 2957 4581 
L 3444 4581 
L 3444 -1275 
z
" transform="scale(0.015625)"/>
      <path id="ArialUnicodeMS-2149" d="M 6034 109 
L 5663 -306 
Q 3916 569 3213 2272 
Q 2581 763 838 -288 
L 453 91 
Q 1166 503 1692 1025 
Q 2219 1547 2522 2075 
Q 2825 2603 2912 3243 
Q 3000 3884 3009 5159 
L 3519 5159 
Q 3525 4763 3475 4111 
Q 3425 3459 3425 3078 
Q 3425 2813 3754 2188 
Q 4084 1563 4632 1020 
Q 5181 478 6034 109 
z
" transform="scale(0.015625)"/>
      <path id="ArialUnicodeMS-11ec" d="M 2150 -56 
L 1594 -550 
Q 1244 281 603 763 
L 959 1069 
Q 1669 634 2150 -56 
z
" transform="scale(0.015625)"/>
      <path id="ArialUnicodeMS-16" d="M 2425 2478 
Q 2850 2397 3067 2067 
Q 3284 1738 3284 1350 
Q 3284 725 2829 323 
Q 2375 -78 1741 -78 
Q 1134 -78 740 275 
Q 347 628 281 1209 
L 844 1288 
Q 928 834 1151 609 
Q 1375 384 1741 384 
Q 2134 384 2407 661 
Q 2681 938 2681 1338 
Q 2681 1722 2432 1975 
Q 2184 2228 1784 2228 
Q 1622 2228 1388 2169 
L 1453 2663 
Q 1678 2663 1809 2684 
Q 1941 2706 2103 2790 
Q 2266 2875 2372 3033 
Q 2478 3191 2478 3425 
Q 2478 3766 2251 3953 
Q 2025 4141 1728 4141 
Q 1388 4141 1173 3925 
Q 959 3709 903 3309 
L 341 3413 
Q 450 4009 823 4306 
Q 1197 4603 1716 4603 
Q 2288 4603 2670 4258 
Q 3053 3913 3053 3413 
Q 3053 2772 2425 2491 
L 2425 2478 
z
" transform="scale(0.015625)"/>
     </defs>
     <use xlink:href="#ArialUnicodeMS-37e8"/>
     <use xlink:href="#ArialUnicodeMS-2e07" transform="translate(100 0)"/>
     <use xlink:href="#ArialUnicodeMS-3cb0" transform="translate(200 0)"/>
     <use xlink:href="#ArialUnicodeMS-377b" transform="translate(300 0)"/>
     <use xlink:href="#ArialUnicodeMS-1a38" transform="translate(400 0)"/>
     <use xlink:href="#ArialUnicodeMS-47c1" transform="translate(500 0)"/>
     <use xlink:href="#ArialUnicodeMS-467c" transform="translate(600 0)"/>
     <use xlink:href="#ArialUnicodeMS-18" transform="translate(700 0)"/>
     <use xlink:href="#ArialUnicodeMS-13" transform="translate(755.609375 0)"/>
     <use xlink:href="#ArialUnicodeMS-2149" transform="translate(811.21875 0)"/>
     <use xlink:href="#ArialUnicodeMS-11ec" transform="translate(911.21875 0)"/>
     <use xlink:href="#ArialUnicodeMS-20e8" transform="translate(1011.21875 0)"/>
     <use xlink:href="#ArialUnicodeMS-467c" transform="translate(1111.21875 0)"/>
     <use xlink:href="#ArialUnicodeMS-16" transform="translate(1211.21875 0)"/>
     <use xlink:href="#ArialUnicodeMS-13" transform="translate(1266.828125 0)"/>
     <use xlink:href="#ArialUnicodeMS-2149" transform="translate(1322.4375 0)"/>
    </g>
   </g>
  </g>
 </g>
 <defs>
  <clipPath id="p41eae247eb">
   <rect x="137.898828" y="72.6" width="609.101172" height="203.901172"/>
  </clipPath>
 </defs>
</svg>
